<?xml version="1.0" encoding="UTF-8" standalone="no"?>
<!-- Created with Inkscape (http://www.inkscape.org/) -->

<svg
   width="210mm"
   height="297mm"
   viewBox="0 0 210 297"
   version="1.1"
   id="svg1"
   inkscape:version="1.3.2 (091e20ef0f, 2023-11-25, custom)"
   sodipodi:docname="opi-logo.svg"
   xmlns:inkscape="http://www.inkscape.org/namespaces/inkscape"
   xmlns:sodipodi="http://sodipodi.sourceforge.net/DTD/sodipodi-0.dtd"
   xmlns="http://www.w3.org/2000/svg"
   xmlns:svg="http://www.w3.org/2000/svg">
  <sodipodi:namedview
     id="namedview1"
     pagecolor="#151515"
     bordercolor="#cccccc"
     borderopacity="1"
     inkscape:showpageshadow="0"
     inkscape:pageopacity="1"
     inkscape:pagecheckerboard="0"
     inkscape:deskcolor="#d1d1d1"
     inkscape:document-units="mm"
     inkscape:zoom="1.1515675"
     inkscape:cx="382.08791"
     inkscape:cy="283.0924"
     inkscape:window-width="1503"
     inkscape:window-height="933"
     inkscape:window-x="0"
     inkscape:window-y="0"
     inkscape:window-maximized="1"
     inkscape:current-layer="layer1"
     showguides="true">
    <sodipodi:guide
       position="109.00553,205.49208"
       orientation="0,-1"
       id="guide1"
       inkscape:locked="false" />
    <sodipodi:guide
       position="88.650515,194.02328"
       orientation="0,-1"
       id="guide2"
       inkscape:locked="false" />
  </sodipodi:namedview>
  <defs
     id="defs1">
    <clipPath
       clipPathUnits="userSpaceOnUse"
       id="clipPath6">
      <path
         d="M 0,595.276 H 595.28 V 0 H 0 Z"
         transform="translate(-169.4409,-289.91581)"
         id="path6" />
    </clipPath>
    <clipPath
       clipPathUnits="userSpaceOnUse"
       id="clipPath8">
      <path
         d="M 0,595.276 H 595.28 V 0 H 0 Z"
         transform="translate(-102.77001,-370.43921)"
         id="path8" />
    </clipPath>
    <clipPath
       clipPathUnits="userSpaceOnUse"
       id="clipPath10">
      <path
         d="M 0,595.276 H 595.28 V 0 H 0 Z"
         transform="translate(-106.4082,-307.45341)"
         id="path10" />
    </clipPath>
    <clipPath
       clipPathUnits="userSpaceOnUse"
       id="clipPath12">
      <path
         d="M 0,595.276 H 595.28 V 0 H 0 Z"
         transform="translate(-369.60641,-275.8601)"
         id="path12" />
    </clipPath>
    <clipPath
       clipPathUnits="userSpaceOnUse"
       id="clipPath14">
      <path
         d="M 0,595.276 H 595.28 V 0 H 0 Z"
         transform="translate(-102.8428,-324.03451)"
         id="path14" />
    </clipPath>
  </defs>
  <g
     inkscape:label="Layer 1"
     inkscape:groupmode="layer"
     id="layer1">
    <g
       id="g1"
       transform="matrix(0.30852181,0,0,0.30852181,28.220648,53.164344)"
       inkscape:export-filename="../OPI-Product/landing-page/img/o+m.webp"
       inkscape:export-xdpi="96"
       inkscape:export-ydpi="96">
      <path
         id="path5"
         d="m 0,0 c -1.3,1.801 -1.879,4.017 -1.665,6.227 0.19,1.963 0.288,3.954 0.288,5.967 0,0.128 0,0.256 -10e-4,0.384 -0.015,2.222 0.766,4.377 2.224,6.053 1.855,2.134 2.712,5.087 2.058,8.06 -0.654,2.969 -2.666,5.288 -5.24,6.448 -2.034,0.916 -3.641,2.558 -4.566,4.588 -0.873,1.918 -1.842,3.784 -2.901,5.59 -1.131,1.932 -1.549,4.199 -1.124,6.396 0.535,2.772 -0.2,5.752 -2.25,7.997 -2.051,2.246 -4.954,3.248 -7.764,2.964 -2.228,-0.225 -4.449,0.397 -6.27,1.699 -1.705,1.218 -3.473,2.352 -5.301,3.395 -1.936,1.105 -3.426,2.853 -4.153,4.961 -0.92,2.669 -3.048,4.885 -5.948,5.805 -2.902,0.92 -5.921,0.334 -8.213,-1.321 -1.8,-1.299 -4.016,-1.879 -6.227,-1.665 -1.963,0.19 -3.953,0.288 -5.967,0.288 -0.128,0 -0.256,0 -0.384,-0.001 -2.222,-0.014 -4.377,0.766 -6.054,2.225 -2.132,1.855 -5.086,2.711 -8.059,2.057 -2.969,-0.653 -5.288,-2.665 -6.447,-5.24 -0.916,-2.033 -2.559,-3.641 -4.589,-4.565 -1.918,-0.874 -3.783,-1.843 -5.59,-2.901 -1.931,-1.131 -4.198,-1.55 -6.396,-1.125 -2.772,0.536 -5.753,-0.2 -7.997,-2.249 -2.246,-2.051 -3.248,-4.954 -2.964,-7.765 0.225,-2.227 -0.397,-4.448 -1.699,-6.27 -1.218,-1.704 -2.352,-3.473 -3.395,-5.3 -1.105,-1.936 -2.853,-3.426 -4.961,-4.153 -2.67,-0.921 -4.885,-3.049 -5.804,-5.948 -0.921,-2.902 -0.335,-5.921 1.32,-8.213 1.3,-1.801 1.879,-4.017 1.665,-6.227 -0.19,-1.964 -0.288,-3.954 -0.288,-5.967 0,-0.128 0,-0.256 0.001,-0.384 0.014,-2.223 -0.766,-4.377 -2.224,-6.054 -1.855,-2.133 -2.712,-5.086 -2.058,-8.059 0.653,-2.969 2.665,-5.289 5.239,-6.448 2.035,-0.916 3.641,-2.559 4.566,-4.589 0.874,-1.918 1.843,-3.783 2.901,-5.59 1.132,-1.931 1.549,-4.198 1.125,-6.395 -0.536,-2.772 0.199,-5.753 2.249,-7.997 2.051,-2.246 4.955,-3.248 7.765,-2.965 2.227,0.225 4.448,-0.397 6.27,-1.698 1.704,-1.219 3.473,-2.352 5.3,-3.395 1.936,-1.105 3.426,-2.853 4.153,-4.961 0.921,-2.67 3.049,-4.886 5.948,-5.805 2.902,-0.92 5.921,-0.334 8.214,1.32 1.8,1.3 4.016,1.879 6.226,1.665 1.964,-0.19 3.954,-0.288 5.967,-0.288 0.128,0 0.256,10e-4 0.384,0.002 2.222,0.013 4.377,-0.767 6.054,-2.225 2.133,-1.854 5.086,-2.712 8.059,-2.057 2.969,0.652 5.289,2.665 6.448,5.239 0.916,2.034 2.559,3.641 4.589,4.566 1.918,0.873 3.783,1.842 5.59,2.901 1.931,1.131 4.198,1.549 6.396,1.125 2.771,-0.537 5.752,0.199 7.997,2.249 2.245,2.05 3.248,4.955 2.964,7.764 -0.225,2.228 0.396,4.448 1.698,6.27 1.219,1.705 2.352,3.473 3.395,5.301 1.105,1.936 2.854,3.426 4.961,4.153 2.67,0.921 4.885,3.049 5.805,5.948 C 2.241,-5.312 1.654,-2.292 0,0"
         style="fill:#f89d21;fill-opacity:1;fill-rule:nonzero;stroke:none"
         transform="matrix(0.35277776,0,0,-0.35277776,59.852562,151.24109)"
         clip-path="url(#clipPath6)"
         inkscape:export-filename="../OPI-Product/landing-page/img/oranje-logo.png"
         inkscape:export-xdpi="96"
         inkscape:export-ydpi="96" />
      <path
         id="path7"
         d="m 0,0 c 1.686,1.79 -2.815,9.21 -7.303,13.875 -4.84,5.031 -10.29,7.509 -13.875,8.763 0.417,-3.498 1.792,-10.449 7.303,-16.065 C -9.087,1.692 -1.625,-1.725 0,0 m 4.381,2.191 c 1.9,4.413 5.809,11.689 13.511,17.161 9.081,6.453 18.656,7.002 30.305,7.668 6.352,0.363 15.577,0.316 26.655,-1.826 C 70.314,23.601 63.629,20.774 56.595,15.701 47.477,9.124 45.56,4.39 39.434,0.73 33.739,-2.672 24.202,-5.267 7.667,-0.365 9.899,2.67 12.879,6.128 16.796,9.494 25.013,16.554 33.497,19.896 39.069,21.543 34.058,20.53 26.785,18.45 18.987,13.875 12.377,9.998 7.586,5.616 4.381,2.191"
         style="fill:#71c82c;fill-opacity:1;fill-rule:nonzero;stroke:none"
         transform="matrix(0.35277776,0,0,-0.35277776,36.332551,122.83422)"
         clip-path="url(#clipPath8)" />
      <path
         id="path9"
         d="m 0,0 c 0.295,0 0.555,0.196 0.636,0.48 l 10.752,37.641 c 0.714,2.853 -1.444,5.617 -4.386,5.617 H -6.977 c -2.94,0 -5.099,-2.764 -4.385,-5.617 L -0.636,0.48 C -0.555,0.196 -0.295,0 0,0 m 3.144,-1.013 c 0.239,-0.174 0.564,-0.168 0.796,0.014 l 30.824,24.133 c 2.254,1.888 2.132,5.393 -0.247,7.122 l -11.309,8.217 c -2.379,1.728 -5.75,0.761 -6.85,-1.967 L 2.911,-0.25 C 2.81,-0.528 2.904,-0.839 3.144,-1.013 M 5.091,-3.68 c 0.092,-0.281 0.358,-0.467 0.653,-0.457 l 39.122,1.406 c 2.934,0.203 4.895,3.11 3.987,5.907 l -4.32,13.295 c -0.909,2.797 -4.205,3.995 -6.698,2.435 L 5.352,-2.927 C 5.106,-3.092 5,-3.399 5.091,-3.68 m 0.008,-3.303 c -0.091,-0.281 0.015,-0.588 0.26,-0.753 l 32.476,-21.857 c 2.493,-1.561 5.789,-0.363 6.698,2.434 l 4.32,13.295 c 0.908,2.798 -1.053,5.704 -3.987,5.907 L 5.752,-6.526 C 5.457,-6.516 5.19,-6.702 5.099,-6.983 M 3.165,-9.66 c -0.24,-0.173 -0.334,-0.484 -0.233,-0.761 l 13.426,-36.773 c 1.1,-2.727 4.471,-3.695 6.85,-1.967 l 11.309,8.217 c 2.379,1.73 2.501,5.234 0.247,7.123 L 3.961,-9.674 C 3.729,-9.492 3.403,-9.486 3.165,-9.66 m -3.139,-1.028 c -0.296,0 -0.555,-0.195 -0.636,-0.479 l -10.752,-37.641 c -0.714,-2.854 1.445,-5.617 4.385,-5.617 H 7.002 c 2.942,0 5.1,2.763 4.386,5.617 L 0.662,-11.167 c -0.081,0.284 -0.341,0.479 -0.636,0.479 m -3.144,1.013 c -0.238,0.174 -0.564,0.168 -0.797,-0.014 l -30.823,-24.132 c -2.254,-1.889 -2.133,-5.393 0.247,-7.123 l 11.309,-8.217 c 2.379,-1.728 5.75,-0.76 6.85,1.967 l 13.447,36.757 c 0.101,0.277 0.007,0.589 -0.233,0.762 m -1.947,2.668 c -0.092,0.28 -0.358,0.467 -0.653,0.456 l -39.121,-1.406 c -2.934,-0.203 -4.896,-3.109 -3.988,-5.907 l 4.32,-13.295 c 0.909,-2.797 4.205,-3.995 6.698,-2.434 l 32.483,21.832 c 0.246,0.165 0.352,0.472 0.261,0.754 m -0.008,3.302 c 0.091,0.281 -0.015,0.589 -0.26,0.753 l -32.476,21.858 c -2.493,1.56 -5.789,0.362 -6.698,-2.435 l -4.32,-13.295 c -0.908,-2.797 1.054,-5.704 3.988,-5.907 l 39.112,-1.431 c 0.296,-0.01 0.562,0.176 0.654,0.457 m 1.935,2.677 c -0.239,-0.174 -0.565,-0.168 -0.798,0.014 l -30.802,24.148 c -2.254,1.888 -2.133,5.393 0.247,7.122 l 11.309,8.217 c 2.379,1.728 5.75,0.761 6.85,-1.967 L -2.906,-0.266 c 0.101,-0.277 0.007,-0.588 -0.232,-0.762"
         style="fill:#ffffff;fill-opacity:1;fill-rule:nonzero;stroke:none"
         transform="matrix(0.35277776,0,0,-0.35277776,37.616026,145.05421)"
         clip-path="url(#clipPath10)" />
      <path
         id="path11"
         d="m 0,0 c -6.979,0 -12.637,5.657 -12.637,12.637 0,6.979 5.658,12.636 12.637,12.636 6.027,0 11.065,-4.22 12.329,-9.867 V 9.867 C 11.065,4.221 6.027,0 0,0 M 25.582,38.526 H 12.329 V 35.637 C 8.657,37.609 4.46,38.732 0,38.732 c -14.412,0 -26.095,-11.683 -26.095,-26.095 0,-14.412 11.683,-26.096 26.095,-26.096 4.461,0 8.656,1.125 12.329,3.098 v -39.672 c 0,-6.658 -4.246,-12.343 -10.171,-14.492 v -13.691 c 13.312,2.47 23.424,14.167 23.424,28.183 z M 55.195,26.404 c -0.347,0 -0.704,-0.014 -1.06,-0.042 C 51.344,26.144 48.758,25.049 46.45,23.108 43.939,20.997 42.307,18.409 41.598,15.416 41.197,13.742 41.33,11.537 41.99,8.851 l 19.05,16.02 c -1.788,1.018 -3.75,1.533 -5.845,1.533 m 1.573,-41.52 c -1.058,0 -2.165,0.051 -3.292,0.149 -6.949,0.612 -12.895,3.802 -17.673,9.484 -4.892,5.816 -7.11,12.318 -6.591,19.327 0.519,7.013 3.653,12.984 9.313,17.743 5.289,4.449 11.052,6.704 17.128,6.704 0.818,0 1.654,-0.041 2.485,-0.122 7.005,-0.682 13.242,-4.22 18.537,-10.516 l 1.479,-1.83 c 0.203,-0.252 0.168,-0.62 -0.08,-0.829 L 48.466,0.094 c 1.868,-1.162 5.639,-3.042 10.479,-3.042 h 10e-4 c 1.07,0 2.149,0.093 3.207,0.276 5.816,1.008 9.533,4.394 11.238,6.333 l 0.88,1.144 c 0.115,0.149 0.291,0.231 0.471,0.231 0.065,0 0.129,-0.01 0.192,-0.031 0.241,-0.082 0.403,-0.309 0.403,-0.564 V -7.202 c 0,-0.151 -0.057,-0.295 -0.159,-0.405 -0.614,-0.658 -1.214,-1.232 -1.837,-1.755 -4.604,-3.871 -10.025,-5.754 -16.571,-5.754 z m -196.945,46.363 c -2.946,3.273 -6.863,5.644 -11.109,6.65 -4.246,1.024 -8.715,0.611 -12.592,-0.948 -2.582,-1.029 -4.915,-2.559 -6.872,-4.439 v 6.222 h -13.252 v -53.629 h 13.252 v 37.143 l 2.668,3.008 c 1.852,2.058 4.264,3.51 6.802,4.169 2.539,0.666 5.177,0.541 7.47,-0.336 2.296,-0.87 4.269,-2.459 5.633,-4.436 1.372,-1.977 2.116,-4.309 2.193,-6.621 l 11.495,1.336 c -0.725,4.441 -2.728,8.617 -5.688,11.881 M 138.49,25.273 c 6.98,0 12.637,-5.657 12.637,-12.636 C 151.127,5.657 145.47,0 138.49,0 132.464,0 127.426,4.221 126.162,9.867 v 5.539 c 1.264,5.647 6.302,9.867 12.328,9.867 m -12.328,-100.58 v 64.946 c 3.672,-1.973 7.868,-3.098 12.328,-3.098 14.412,0 26.096,11.684 26.096,26.096 0,14.412 -11.684,26.095 -26.096,26.095 -4.46,0 -8.656,-1.123 -12.328,-3.095 v 2.889 H 112.909 V -75.307 Z M -110.34,-1.644 c -6.979,0 -12.637,5.658 -12.637,12.637 0,6.979 5.658,12.636 12.637,12.636 6.027,0 11.066,-4.22 12.329,-9.866 v -5.54 c -1.263,-5.646 -6.302,-9.867 -12.329,-9.867 m 12.329,40.376 v -4.741 c -3.673,1.973 -7.868,3.097 -12.329,3.097 -14.412,0 -26.095,-11.683 -26.095,-26.095 0,-14.412 11.683,-26.096 26.095,-26.096 4.46,0 8.657,1.123 12.329,3.095 v -2.889 h 13.253 v 53.629 z m 270.662,26.061 h 12.742 V 52.051 h -12.742 z m 0,-26.061 h 12.742 v -53.629 h -12.742 z m -248.608,0 h 14.283 v -6.889 c 2.89,2.435 5.507,4.13 7.853,5.082 2.345,0.952 4.747,1.429 7.201,1.429 5.034,0 9.306,-1.758 12.817,-5.274 2.951,-2.988 4.428,-7.406 4.428,-13.256 V -14.968 H -41.978 V 8.504 c 0,6.059 -0.271,10.084 -0.814,12.073 -0.544,1.99 -1.49,3.505 -2.841,4.546 -1.35,1.042 -3.018,1.562 -5.006,1.562 -2.576,0 -4.788,-0.863 -6.634,-2.587 -1.847,-1.726 -3.128,-4.112 -3.842,-7.157 -0.373,-1.586 -0.559,-5.019 -0.559,-10.302 v -21.607 h -14.283 z"
         style="fill:#f9f9f9;fill-opacity:1;fill-rule:nonzero;stroke:none"
         transform="matrix(0.35277776,0,0,-0.35277776,130.4665,156.19963)"
         clip-path="url(#clipPath12)" />
      <path
         id="path13"
         d="M 0,0 C -0.327,1.148 -0.105,2.343 0.605,3.286 1.3,4.209 2.354,4.741 3.497,4.744 H 3.646 C 4.788,4.741 5.842,4.21 6.536,3.288 7.248,2.342 7.47,1.148 7.146,0.014 L 3.569,-13.032 Z m 13.571,-2.084 c 0.541,1.479 1.95,2.466 3.511,2.466 0.759,0 1.489,-0.237 2.112,-0.688 l 0.122,-0.088 c 0.918,-0.672 1.456,-1.721 1.475,-2.873 0.019,-1.184 -0.502,-2.279 -1.432,-3.006 L 8.797,-14.726 Z m -25.775,-4.207 c -0.938,0.736 -1.461,1.833 -1.442,3.014 0.018,1.153 0.557,2.201 1.478,2.876 l 0.12,0.088 c 0.62,0.448 1.351,0.687 2.11,0.687 1.562,0 2.971,-0.986 3.507,-2.454 l 4.775,-12.657 z m 35.535,-5.451 c 0.631,0.424 1.351,0.645 2.09,0.645 1.601,0 3.006,-1.001 3.496,-2.49 l 0.049,-0.151 c 0.351,-1.089 0.172,-2.262 -0.494,-3.211 -0.679,-0.968 -1.743,-1.546 -2.921,-1.589 l -13.519,-0.629 z m -41.715,-6.81 c -1.191,0.043 -2.257,0.622 -2.934,1.588 -0.666,0.95 -0.846,2.123 -0.494,3.219 l 0.047,0.141 c 0.489,1.492 1.894,2.492 3.496,2.492 0.74,0 1.459,-0.22 2.079,-0.637 l 11.308,-7.437 z m 43.81,-14.187 c -0.74,0 -1.459,0.221 -2.08,0.638 l -11.309,7.438 13.504,-0.634 c 1.191,-0.044 2.257,-0.623 2.935,-1.589 0.665,-0.949 0.844,-2.123 0.493,-3.219 l -0.047,-0.139 c -0.489,-1.493 -1.894,-2.495 -3.496,-2.495 m -43.69,-0.013 c -1.601,0 -3.006,1.001 -3.496,2.489 l -0.046,0.144 c -0.354,1.095 -0.174,2.268 0.492,3.218 0.677,0.967 1.742,1.547 2.92,1.589 l 13.519,0.63 -11.298,-7.425 c -0.632,-0.424 -1.352,-0.645 -2.091,-0.645 m 35.359,-11.471 c -1.562,0 -2.971,0.985 -3.508,2.454 l -4.774,12.655 10.547,-8.445 c 0.94,-0.735 1.463,-1.832 1.444,-3.014 -0.02,-1.152 -0.558,-2.2 -1.478,-2.876 l -0.121,-0.088 c -0.621,-0.448 -1.351,-0.686 -2.11,-0.686 m -27.019,-0.01 c -0.762,10e-4 -1.493,0.238 -2.114,0.689 l -0.119,0.087 c -0.919,0.673 -1.459,1.722 -1.478,2.874 -0.019,1.183 0.503,2.279 1.433,3.005 l 10.562,8.453 -4.774,-12.639 c -0.541,-1.481 -1.95,-2.469 -3.51,-2.469 m 13.503,-4.36 c -1.209,0.002 -2.264,0.533 -2.959,1.456 -0.711,0.944 -0.933,2.138 -0.608,3.274 l 3.576,13.046 3.568,-13.032 c 0.327,-1.149 0.106,-2.342 -0.605,-3.287 -0.694,-0.923 -1.748,-1.453 -2.891,-1.457 z"
         style="fill:#f89d21;fill-opacity:1;fill-rule:nonzero;stroke:none"
         transform="matrix(0.35277776,0,0,-0.35277776,36.358231,139.20477)"
         clip-path="url(#clipPath14)" />
    </g>
    <path
       d="m 150.82983,95.125999 c -0.17976,0 -0.33311,0.0635 -0.45998,0.19032 -0.12686,0.12686 -0.19033,0.28023 -0.19033,0.45997 0,0.17976 0.0635,0.3331 0.19033,0.45998 0.12686,0.12686 0.28022,0.19033 0.45998,0.19032 0.17973,10e-6 0.33308,-0.0635 0.45996,-0.19032 0.12686,-0.12686 0.19033,-0.28022 0.19033,-0.45998 0,-0.17974 -0.0634,-0.33308 -0.19033,-0.45997 -0.12686,-0.12686 -0.28023,-0.19031 -0.45996,-0.19032 z m 0,1.7024 c -0.15156,10e-6 -0.28192,0.0546 -0.39117,0.16393 -0.10569,0.10569 -0.15867,0.23608 -0.15865,0.39116 v 5.339691 c 0,0.2009 -0.0387,0.38938 -0.11622,0.5656 -0.0776,0.17622 -0.18327,0.32957 -0.3172,0.45997 -0.13041,0.13394 -0.28375,0.23793 -0.45996,0.31195 -0.17625,0.0776 -0.36482,0.11621 -0.56573,0.11621 -0.15861,0 -0.2908,0.0512 -0.39654,0.15339 -0.10223,0.1057 -0.15328,0.23783 -0.15328,0.39643 0,0.1586 0.0511,0.29079 0.15328,0.39654 0.1057,0.1057 0.23793,0.15866 0.39654,0.15866 0.34894,0 0.67848,-0.0687 0.98865,-0.20621 0.31016,-0.13394 0.58148,-0.31721 0.81412,-0.54983 0.23262,-0.23261 0.41589,-0.50404 0.54982,-0.81423 0.13747,-0.31016 0.20621,-0.63959 0.20622,-0.98853 v -5.339691 c -10e-6,-0.15508 -0.0546,-0.28543 -0.16392,-0.39116 -0.10569,-0.10929 -0.23436,-0.16392 -0.38591,-0.16392 z m -23.33697,0.0604 c -0.15157,2e-5 -0.28192,0.0547 -0.39118,0.16393 -0.10569,0.1057 -0.15865,0.23435 -0.15865,0.38591 v 4.816281 c 0,0.15508 0.0529,0.28716 0.15865,0.39642 0.10929,0.1057 0.24146,0.15865 0.39654,0.15865 0.15155,0 0.28017,-0.0529 0.3859,-0.15865 0.10929,-0.10929 0.16392,-0.24134 0.16392,-0.39642 v -3.008241 c 0,-0.17271 0.0317,-0.33483 0.095,-0.48638 0.067,-0.15155 0.15687,-0.28365 0.26965,-0.39644 0.11634,-0.11634 0.25024,-0.20619 0.4018,-0.26963 0.15155,-0.067 0.31368,-0.10044 0.48639,-0.10044 0.17269,0 0.33481,0.0335 0.48637,0.10044 0.15155,0.0669 0.28375,0.15686 0.39654,0.26963 0.11275,0.11275 0.20256,0.24489 0.26953,0.39644 0.067,0.15155 0.10044,0.31367 0.10044,0.48638 v 3.008241 c 0,0.15508 0.0529,0.28716 0.15866,0.39642 0.10928,0.1057 0.24134,0.15865 0.39643,0.15865 0.15154,0 0.28027,-0.0529 0.38602,-0.15865 0.10929,-0.10929 0.16379,-0.24134 0.1638,-0.39642 v -3.008241 c -1e-5,-0.17271 0.0317,-0.33483 0.0952,-0.48638 0.067,-0.15155 0.15686,-0.28365 0.26965,-0.39644 0.11634,-0.11275 0.25023,-0.20268 0.4018,-0.26963 0.15154,-0.067 0.31367,-0.10044 0.48637,-0.10044 0.17622,0 0.34009,0.0335 0.49165,0.10044 0.15506,0.0669 0.289,0.15859 0.40179,0.27491 0.11275,0.11275 0.20083,0.24498 0.26429,0.39653 0.067,0.15156 0.10043,0.31184 0.10043,0.48101 v 3.008241 c 0,0.15508 0.0528,0.28716 0.15866,0.39642 0.10569,0.1057 0.23608,0.15866 0.39117,0.15866 0.15154,0 0.28017,-0.0528 0.38591,-0.15866 0.10928,-0.10929 0.1639,-0.24134 0.16391,-0.39642 v -3.008241 c -1e-5,-0.32072 -0.0635,-0.62384 -0.19031,-0.90933 -0.1234,-0.28899 -0.29255,-0.53918 -0.50754,-0.75066 -0.21148,-0.215 -0.46166,-0.38418 -0.75067,-0.50753 -0.28549,-0.12686 -0.58861,-0.19032 -0.90932,-0.19033 -0.71197,1e-5 -1.31297,0.28023 -1.80289,0.84061 -0.23262,-0.28197 -0.50395,-0.4917 -0.81412,-0.62917 -0.31015,-0.14097 -0.64144,-0.21147 -0.99392,-0.21147 -0.47933,0 -0.90758,0.12519 -1.28468,0.37539 -0.0353,-0.11275 -0.10044,-0.20268 -0.19559,-0.26965 -0.0952,-0.0705 -0.20448,-0.1057 -0.32783,-0.1057 z m 11.7574,0 c -0.81771,2e-5 -1.51555,0.28902 -2.09353,0.86704 -0.578,0.57798 -0.86704,1.27587 -0.86704,2.09353 0,0.817711 0.28902,1.515531 0.86704,2.093531 0.57798,0.578 1.27587,0.86702 2.09353,0.86702 0.35244,0 0.68375,-0.0564 0.99392,-0.16917 0.31014,-0.11275 0.59741,-0.27491 0.86175,-0.48638 v 0.10569 c 0,0.15156 0.0529,0.2819 0.15855,0.39117 0.10929,0.10569 0.24145,0.15865 0.39654,0.15865 0.15154,0 0.28016,-0.0528 0.3859,-0.15865 0.10929,-0.10929 0.16391,-0.23961 0.16392,-0.39117 v -2.410771 c -1e-5,-0.81766 -0.28902,-1.51554 -0.86702,-2.09354 -0.58507,-0.57799 -1.28295,-0.86702 -2.09355,-0.86702 z m 4.53567,0 c -0.15507,2e-5 -0.28728,0.0547 -0.39654,0.16393 -0.10569,0.10929 -0.15855,0.23961 -0.15855,0.39116 v 4.811021 c 0,0.15506 0.0529,0.28716 0.15855,0.39642 0.10929,0.10569 0.24146,0.15866 0.39654,0.15866 0.15155,0 0.28017,-0.0529 0.3859,-0.15866 0.10929,-0.10929 0.16392,-0.24136 0.16393,-0.39642 v -2.606461 c -1e-5,-0.22557 0.0423,-0.43877 0.12686,-0.63965 0.0881,-0.2009 0.20795,-0.37712 0.3595,-0.52867 0.15156,-0.15155 0.32604,-0.26965 0.52341,-0.35425 0.2009,-0.0881 0.41584,-0.13213 0.64494,-0.13213 0.22556,0 0.43876,0.044 0.63964,0.13213 0.20089,0.0881 0.37539,0.20796 0.52341,0.35951 0.15155,0.14804 0.27138,0.32252 0.35951,0.52342 0.0881,0.2009 0.13213,0.4141 0.13214,0.63965 v 2.606451 c -1e-5,0.15508 0.0528,0.28717 0.15866,0.39643 0.10929,0.1057 0.24144,0.15865 0.39652,0.15865 0.15155,0 0.28017,-0.0529 0.38592,-0.15865 0.10928,-0.10929 0.1639,-0.24135 0.16392,-0.39643 v -2.606451 c -2e-5,-0.38065 -0.074,-0.73828 -0.22211,-1.07314 -0.14803,-0.33835 -0.34888,-0.63095 -0.60262,-0.87768 -0.25378,-0.25023 -0.54809,-0.4476 -0.88289,-0.59214 -0.33131,-0.14449 -0.68202,-0.21672 -1.0521,-0.21672 -0.63444,0 -1.18596,0.18154 -1.65472,0.54456 0,-0.1445 -0.0546,-0.27138 -0.16393,-0.38065 -0.1057,-0.10928 -0.23435,-0.16391 -0.38589,-0.16393 z m 11.57452,0 c -0.81771,2e-5 -1.51554,0.28902 -2.09353,0.86704 -0.578,0.57798 -0.86703,1.27587 -0.86703,2.09353 0,0.817711 0.28902,1.515531 0.86703,2.093531 0.57799,0.578 1.27588,0.86702 2.09353,0.86702 0.35244,0 0.68374,-0.0564 0.99392,-0.16917 0.31016,-0.11275 0.59741,-0.27491 0.86175,-0.48638 v 0.10569 c -1e-5,0.15156 0.0529,0.2819 0.15866,0.39117 0.10929,0.10569 0.24134,0.15865 0.39642,0.15865 0.15155,0 0.28027,-0.0528 0.386,-0.15865 0.10929,-0.10929 0.16381,-0.23961 0.16382,-0.39117 v -2.410771 c -1e-5,-0.81766 -0.28902,-1.51554 -0.86702,-2.09354 -0.58507,-0.57799 -1.28295,-0.86702 -2.09353,-0.86702 z m 4.53579,0 c -0.15508,2e-5 -0.28728,0.0547 -0.39654,0.16393 -0.1057,0.1057 -0.15866,0.23435 -0.15866,0.38591 v 4.821491 c 0,0.15156 0.0529,0.28191 0.15866,0.39116 0.10929,0.10569 0.24146,0.15866 0.39654,0.15866 0.15155,0 0.28016,-0.0528 0.3859,-0.15866 0.10929,-0.10929 0.1639,-0.23961 0.16392,-0.39116 v -2.410771 c 0,-0.25729 0.0475,-0.4987 0.14266,-0.72426 0.0986,-0.22556 0.23089,-0.4212 0.39653,-0.58685 0.16918,-0.16918 0.36655,-0.30137 0.59214,-0.39654 0.22557,-0.0986 0.46696,-0.14802 0.72424,-0.14803 0.26082,1e-5 0.50232,0.044 0.72437,0.13214 0.0881,0.0387 0.16564,0.0582 0.23261,0.0582 0.0776,2e-5 0.14977,-0.0141 0.21674,-0.0423 0.067,-0.0282 0.12506,-0.067 0.17443,-0.11622 0.0494,-0.0529 0.0881,-0.11288 0.11635,-0.17981 0.0317,-0.067 0.0476,-0.13917 0.0476,-0.21672 0,-0.15156 -0.0494,-0.27497 -0.14803,-0.37013 -0.0986,-0.0952 -0.22384,-0.16911 -0.37539,-0.22198 -0.14803,-0.0564 -0.3119,-0.0952 -0.49164,-0.11635 -0.17623,-0.0212 -0.34193,-0.0317 -0.49701,-0.0317 -0.35245,0 -0.68375,0.0564 -0.99392,0.16918 -0.31016,0.11275 -0.59736,0.27491 -0.86163,0.48637 v -0.10569 c 0,-0.15155 -0.0546,-0.28016 -0.16393,-0.3859 -0.1057,-0.10929 -0.23435,-0.16392 -0.38591,-0.16392 z m 6.87784,0 c -0.81772,2e-5 -1.51555,0.28902 -2.09354,0.86704 -0.578,0.57798 -0.86702,1.27587 -0.86702,2.09353 0,0.817711 0.289,1.515531 0.86702,2.093531 0.57799,0.578 1.27587,0.86702 2.09354,0.86702 0.81064,0 1.50846,-0.289 2.09353,-0.86702 0.57799,-0.57098 0.86702,-1.26881 0.86702,-2.093531 -0.004,-0.40884 -0.0775,-0.78776 -0.22199,-1.1367 -0.14098,-0.34892 -0.35604,-0.66787 -0.64503,-0.9569 -0.58507,-0.57799 -1.28295,-0.86702 -2.09353,-0.86702 z m -27.52372,1.1049 c 0.25729,0 0.49869,0.0494 0.72426,0.14803 0.22556,0.0986 0.4212,0.23261 0.58685,0.40179 0.16918,0.16918 0.30138,0.36655 0.39655,0.59214 0.0986,0.22205 0.14802,0.45998 0.14802,0.71375 0,0.253771 -0.0493,0.493431 -0.14802,0.718981 -0.0952,0.22204 -0.22736,0.41757 -0.39655,0.58674 -0.16565,0.16919 -0.36129,0.30311 -0.58685,0.40179 -0.22558,0.0986 -0.46697,0.14814 -0.72426,0.14814 -0.2608,1e-5 -0.50405,-0.0494 -0.72963,-0.14814 -0.22557,-0.0986 -0.4211,-0.23077 -0.58675,-0.39642 -0.16565,-0.16918 -0.29784,-0.36655 -0.39653,-0.59214 -0.0952,-0.22556 -0.14278,-0.46522 -0.14277,-0.718971 0,-0.25375 0.0476,-0.49343 0.14277,-0.71897 0.0986,-0.22557 0.23087,-0.4212 0.39653,-0.58686 0.16565,-0.16916 0.36118,-0.3031 0.58675,-0.4018 0.22557,-0.0986 0.46881,-0.14802 0.72963,-0.14802 z m 16.1102,0 c 0.25728,0 0.49879,0.0494 0.72437,0.14803 0.22556,0.0986 0.42108,0.23261 0.58673,0.40179 0.16918,0.16918 0.30137,0.36655 0.39654,0.59214 0.0986,0.22205 0.14804,0.45998 0.14804,0.71375 0,0.253771 -0.0493,0.493431 -0.14804,0.718981 -0.0952,0.22204 -0.22736,0.41757 -0.39654,0.58674 -0.16565,0.16919 -0.36117,0.30311 -0.58673,0.40179 -0.22558,0.0986 -0.46709,0.14814 -0.72437,0.14814 -0.2608,1e-5 -0.50395,-0.0494 -0.72952,-0.14814 -0.22558,-0.0986 -0.4212,-0.23077 -0.58686,-0.39642 -0.16565,-0.16918 -0.29785,-0.36655 -0.39654,-0.59214 -0.0952,-0.22556 -0.14266,-0.46522 -0.14266,-0.718971 0,-0.25375 0.0475,-0.49343 0.14266,-0.71897 0.0986,-0.22557 0.23088,-0.4212 0.39654,-0.58686 0.16566,-0.16916 0.36128,-0.3031 0.58686,-0.4018 0.22557,-0.0986 0.4687,-0.14802 0.72952,-0.14802 z m 11.41408,0 c 0.25729,0 0.49879,0.0494 0.72436,0.14803 0.22556,0.0986 0.42109,0.23261 0.58675,0.40179 0.16916,0.16918 0.30136,0.36655 0.39653,0.59214 0.0986,0.22205 0.14802,0.45998 0.14803,0.71375 -1e-5,0.253771 -0.0494,0.493431 -0.14803,0.718981 -0.0952,0.22204 -0.22737,0.41757 -0.39653,0.58674 -0.16566,0.16919 -0.36119,0.30311 -0.58675,0.40179 -0.22558,0.0986 -0.46709,0.14814 -0.72436,0.14814 -0.26083,1e-5 -0.50395,-0.0494 -0.72953,-0.14814 -0.22556,-0.0986 -0.42121,-0.23077 -0.58685,-0.39642 -0.16566,-0.16918 -0.29786,-0.36655 -0.39655,-0.59214 -0.0952,-0.22556 -0.14266,-0.46522 -0.14266,-0.718971 0,-0.25375 0.0475,-0.49343 0.14266,-0.71897 0.0986,-0.22557 0.23089,-0.4212 0.39655,-0.58686 0.16564,-0.16916 0.36128,-0.3031 0.58685,-0.4018 0.22557,-0.0986 0.4687,-0.14802 0.72953,-0.14802 z"
       fill="#eeeeee"
       id="path4"
       style="fill:#ffffff;fill-opacity:1;stroke-width:0.197337" />
    <path
       d="m 112.05692,91.628257 c -0.67831,0 -1.22436,0.546056 -1.22436,1.224352 v 11.019311 c 0,0.6783 0.54606,1.22435 1.22436,1.22435 h 2.4487 v -9.794416 h 4.89734 v -3.672991 z m 8.57019,0 V 105.096 h 2.44871 c 0.6783,0 1.22435,-0.54606 1.22435,-1.22435 V 92.85234 c 0,-0.678303 -0.54605,-1.224353 -1.22435,-1.224353 z m -4.89734,4.897343 v 8.5702 h 3.67299 v -8.5702 z"
       fill="#69f0ae"
       fill-rule="evenodd"
       stroke-linecap="round"
       stroke-linejoin="round"
       stroke-width="0.61217"
       style="fill:#35bfa4;paint-order:stroke fill markers"
       id="path6-2" />
    <text
       xml:space="preserve"
       style="font-weight:bold;font-size:19.3645px;font-family:sans-serif;-inkscape-font-specification:'sans-serif Bold';fill:#f9f9f9;stroke-width:2.75808;stroke-linecap:round;stroke-linejoin:round"
       x="94.212975"
       y="105.20748"
       id="text2"><tspan
         sodipodi:role="line"
         id="tspan2"
         style="stroke-width:2.75808"
         x="94.212975"
         y="105.20748">+</tspan></text>
  </g>
</svg>
